<svg width="528" height="48" viewBox="0 0 528 48" fill="none" xmlns="http://www.w3.org/2000/svg">
<g clip-path="url(#clip0_2043_1219)">
<g opacity="0.2" clip-path="url(#clip1_2043_1219)">
<rect x="516" y="48" width="8" height="8" transform="rotate(-180 516 48)" fill="#A891EB"/>
<rect x="496" y="48" width="8" height="8" transform="rotate(-180 496 48)" fill="#A891EB"/>
<rect x="476" y="48" width="8" height="8" transform="rotate(-180 476 48)" fill="#A891EB"/>
<rect x="456" y="48" width="8" height="8" transform="rotate(-180 456 48)" fill="#A891EB"/>
<rect x="436" y="48" width="8" height="8" transform="rotate(-180 436 48)" fill="#A891EB"/>
<rect x="416" y="48" width="8" height="8" transform="rotate(-180 416 48)" fill="#A891EB"/>
<rect x="396" y="48" width="8" height="8" transform="rotate(-180 396 48)" fill="#A891EB"/>
<rect x="376" y="48" width="8" height="8" transform="rotate(-180 376 48)" fill="#A891EB"/>
<rect x="356" y="48" width="8" height="8" transform="rotate(-180 356 48)" fill="#A891EB"/>
<rect x="336" y="48" width="8" height="8" transform="rotate(-180 336 48)" fill="#A891EB"/>
<rect x="316" y="48" width="8" height="8" transform="rotate(-180 316 48)" fill="#A891EB"/>
<rect x="296" y="48" width="8" height="8" transform="rotate(-180 296 48)" fill="#A891EB"/>
<rect x="276" y="48" width="8" height="8" transform="rotate(-180 276 48)" fill="#A891EB"/>
<rect x="256" y="48" width="8" height="8" transform="rotate(-180 256 48)" fill="#A891EB"/>
<rect x="236" y="48" width="8" height="8" transform="rotate(-180 236 48)" fill="#A891EB"/>
<rect x="216" y="48" width="8" height="8" transform="rotate(-180 216 48)" fill="#A891EB"/>
<rect x="196" y="48" width="8" height="8" transform="rotate(-180 196 48)" fill="#A891EB"/>
<rect x="176" y="48" width="8" height="8" transform="rotate(-180 176 48)" fill="#A891EB"/>
<rect x="156" y="48" width="8" height="8" transform="rotate(-180 156 48)" fill="#A891EB"/>
<rect x="136" y="48" width="8" height="8" transform="rotate(-180 136 48)" fill="#A891EB"/>
<rect x="116" y="48" width="8" height="8" transform="rotate(-180 116 48)" fill="#A891EB"/>
<rect x="96" y="48" width="8" height="8" transform="rotate(-180 96 48)" fill="#A891EB"/>
<rect x="76" y="48" width="8" height="8" transform="rotate(-180 76 48)" fill="#A891EB"/>
<rect x="56" y="48" width="8" height="8" transform="rotate(-180 56 48)" fill="#A891EB"/>
<rect x="36" y="48" width="8" height="8" transform="rotate(-180 36 48)" fill="#A891EB"/>
<rect x="16" y="48" width="8" height="8" transform="rotate(-180 16 48)" fill="#A891EB"/>
<rect x="516" y="28" width="8" height="8" transform="rotate(-180 516 28)" fill="#A891EB"/>
<rect x="496" y="28" width="8" height="8" transform="rotate(-180 496 28)" fill="#A891EB"/>
<rect x="476" y="28" width="8" height="8" transform="rotate(-180 476 28)" fill="#A891EB"/>
<rect x="456" y="28" width="8" height="8" transform="rotate(-180 456 28)" fill="#A891EB"/>
<rect x="436" y="28" width="8" height="8" transform="rotate(-180 436 28)" fill="#A891EB"/>
<rect x="416" y="28" width="8" height="8" transform="rotate(-180 416 28)" fill="#A891EB"/>
<rect x="396" y="28" width="8" height="8" transform="rotate(-180 396 28)" fill="#A891EB"/>
<rect x="376" y="28" width="8" height="8" transform="rotate(-180 376 28)" fill="#A891EB"/>
<rect x="356" y="28" width="8" height="8" transform="rotate(-180 356 28)" fill="#A891EB"/>
<rect x="336" y="28" width="8" height="8" transform="rotate(-180 336 28)" fill="#A891EB"/>
<rect x="316" y="28" width="8" height="8" transform="rotate(-180 316 28)" fill="#A891EB"/>
<rect x="296" y="28" width="8" height="8" transform="rotate(-180 296 28)" fill="#A891EB"/>
<rect x="276" y="28" width="8" height="8" transform="rotate(-180 276 28)" fill="#A891EB"/>
<rect x="256" y="28" width="8" height="8" transform="rotate(-180 256 28)" fill="#A891EB"/>
<rect x="236" y="28" width="8" height="8" transform="rotate(-180 236 28)" fill="#A891EB"/>
<rect x="216" y="28" width="8" height="8" transform="rotate(-180 216 28)" fill="#A891EB"/>
<rect x="196" y="28" width="8" height="8" transform="rotate(-180 196 28)" fill="#A891EB"/>
<rect x="176" y="28" width="8" height="8" transform="rotate(-180 176 28)" fill="#A891EB"/>
<rect x="156" y="28" width="8" height="8" transform="rotate(-180 156 28)" fill="#A891EB"/>
<rect x="136" y="28" width="8" height="8" transform="rotate(-180 136 28)" fill="#A891EB"/>
<rect x="116" y="28" width="8" height="8" transform="rotate(-180 116 28)" fill="#A891EB"/>
<rect x="96" y="28" width="8" height="8" transform="rotate(-180 96 28)" fill="#A891EB"/>
<rect x="76" y="28" width="8" height="8" transform="rotate(-180 76 28)" fill="#A891EB"/>
<rect x="56" y="28" width="8" height="8" transform="rotate(-180 56 28)" fill="#A891EB"/>
<rect x="36" y="28" width="8" height="8" transform="rotate(-180 36 28)" fill="#A891EB"/>
<rect x="16" y="28" width="8" height="8" transform="rotate(-180 16 28)" fill="#A891EB"/>
<rect x="516" y="8" width="8" height="8" transform="rotate(-180 516 8)" fill="#A891EB"/>
<rect x="496" y="8" width="8" height="8" transform="rotate(-180 496 8)" fill="#A891EB"/>
<rect x="476" y="8" width="8" height="8" transform="rotate(-180 476 8)" fill="#A891EB"/>
<rect x="456" y="8" width="8" height="8" transform="rotate(-180 456 8)" fill="#A891EB"/>
<rect x="436" y="8" width="8" height="8" transform="rotate(-180 436 8)" fill="#A891EB"/>
<rect x="416" y="8" width="8" height="8" transform="rotate(-180 416 8)" fill="#A891EB"/>
<rect x="396" y="8" width="8" height="8" transform="rotate(-180 396 8)" fill="#A891EB"/>
<rect x="376" y="8" width="8" height="8" transform="rotate(-180 376 8)" fill="#A891EB"/>
<rect x="356" y="8" width="8" height="8" transform="rotate(-180 356 8)" fill="#A891EB"/>
<rect x="336" y="8" width="8" height="8" transform="rotate(-180 336 8)" fill="#A891EB"/>
<rect x="316" y="8" width="8" height="8" transform="rotate(-180 316 8)" fill="#A891EB"/>
<rect x="296" y="8" width="8" height="8" transform="rotate(-180 296 8)" fill="#A891EB"/>
<rect x="276" y="8" width="8" height="8" transform="rotate(-180 276 8)" fill="#A891EB"/>
<rect x="256" y="8" width="8" height="8" transform="rotate(-180 256 8)" fill="#A891EB"/>
<rect x="236" y="8" width="8" height="8" transform="rotate(-180 236 8)" fill="#A891EB"/>
<rect x="216" y="8" width="8" height="8" transform="rotate(-180 216 8)" fill="#A891EB"/>
<rect x="196" y="8" width="8" height="8" transform="rotate(-180 196 8)" fill="#A891EB"/>
<rect x="176" y="8" width="8" height="8" transform="rotate(-180 176 8)" fill="#A891EB"/>
<rect x="156" y="8" width="8" height="8" transform="rotate(-180 156 8)" fill="#A891EB"/>
<rect x="136" y="8" width="8" height="8" transform="rotate(-180 136 8)" fill="#A891EB"/>
<rect x="116" y="8" width="8" height="8" transform="rotate(-180 116 8)" fill="#A891EB"/>
<rect x="96" y="8" width="8" height="8" transform="rotate(-180 96 8)" fill="#A891EB"/>
<rect x="76" y="8" width="8" height="8" transform="rotate(-180 76 8)" fill="#A891EB"/>
<rect x="56" y="8" width="8" height="8" transform="rotate(-180 56 8)" fill="#A891EB"/>
<rect x="36" y="8" width="8" height="8" transform="rotate(-180 36 8)" fill="#A891EB"/>
<rect x="16" y="8" width="8" height="8" transform="rotate(-180 16 8)" fill="#A891EB"/>
</g>
</g>
<defs>
<clipPath id="clip0_2043_1219">
<rect width="528" height="48" fill="white"/>
</clipPath>
<clipPath id="clip1_2043_1219">
<rect width="1916" height="47.9998" fill="white" transform="translate(1916 48) rotate(-180)"/>
</clipPath>
</defs>
</svg>
